<svg width="24" height="24" viewBox="0 0 24 24" fill="none" xmlns="http://www.w3.org/2000/svg">
<path fill-rule="evenodd" clip-rule="evenodd" d="M7 2L6.93417 2C6.04769 1.99995 5.28387 1.99991 4.67221 2.08215C4.0167 2.17028 3.38835 2.36902 2.87868 2.87868C2.36902 3.38835 2.17028 4.0167 2.08215 4.67221C1.99991 5.28387 1.99995 6.04769 2 6.93417L2 7V17L2 17.0658C1.99995 17.9523 1.99991 18.7161 2.08215 19.3278C2.17028 19.9833 2.36902 20.6117 2.87868 21.1213C3.38835 21.631 4.0167 21.8297 4.67221 21.9179C5.28388 22.0001 6.0477 22.0001 6.9342 22L7 22H17L17.0658 22C17.9523 22.0001 18.7161 22.0001 19.3278 21.9179C19.9833 21.8297 20.6117 21.631 21.1213 21.1213C21.631 20.6117 21.8297 19.9833 21.9179 19.3278C22.0001 18.7161 22.0001 17.9523 22 17.0658L22 17V7L22 6.9342C22.0001 6.0477 22.0001 5.28388 21.9179 4.67221C21.8297 4.0167 21.631 3.38835 21.1213 2.87868C20.6117 2.36902 19.9833 2.17028 19.3278 2.08215C18.7161 1.99991 17.9523 1.99995 17.0658 2L17 2H7ZM4.2929 4.2929C4.36902 4.21677 4.50497 4.12263 4.93871 4.06431C5.40122 4.00213 6.02893 4 7 4H17C17.9711 4 18.5988 4.00213 19.0613 4.06431C19.495 4.12263 19.631 4.21677 19.7071 4.2929C19.7832 4.36902 19.8774 4.50497 19.9357 4.93871C19.9979 5.40122 20 6.02893 20 7V17C20 17.9711 19.9979 18.5988 19.9357 19.0613C19.8774 19.495 19.7832 19.631 19.7071 19.7071C19.631 19.7832 19.495 19.8774 19.0613 19.9357C18.5988 19.9979 17.9711 20 17 20H7C6.02893 20 5.40121 19.9979 4.93871 19.9357C4.50497 19.8774 4.36902 19.7832 4.2929 19.7071C4.21677 19.631 4.12263 19.495 4.06431 19.0613C4.00213 18.5988 4 17.9711 4 17V7C4 6.02893 4.00213 5.40121 4.06431 4.93871C4.12263 4.50497 4.21677 4.36902 4.2929 4.2929ZM17.8321 9.55471C18.1384 9.09518 18.0142 8.47431 17.5547 8.16795C17.0952 7.8616 16.4743 7.98578 16.168 8.4453L13.1238 13.0115L12.6651 12.0941C11.9783 10.7205 10.0639 10.6013 9.21211 11.8791L6.16796 16.4453C5.8616 16.9048 5.98578 17.5257 6.44531 17.8321C6.90484 18.1384 7.5257 18.0142 7.83206 17.5547L10.8762 12.9885L11.3349 13.906C12.0217 15.2795 13.9361 15.3987 14.7879 14.1209L17.8321 9.55471Z" fill="white"/>
</svg>
