<svg width="24" height="24" viewBox="0 0 24 24" fill="none" xmlns="http://www.w3.org/2000/svg">
<path fill-rule="evenodd" clip-rule="evenodd" d="M7 3L6.93417 3C6.04769 2.99995 5.28387 2.99991 4.67221 3.08215C4.0167 3.17028 3.38835 3.36902 2.87868 3.87868C2.36902 4.38835 2.17028 5.0167 2.08215 5.67221C1.99991 6.28387 1.99995 7.04769 2 7.93417L2 8V16L2 16.0658C1.99995 16.9523 1.99991 17.7161 2.08215 18.3278C2.17028 18.9833 2.36902 19.6117 2.87868 20.1213C3.38835 20.631 4.0167 20.8297 4.67221 20.9179C5.28388 21.0001 6.0477 21.0001 6.9342 21L7 21H17L17.0658 21C17.9523 21.0001 18.7161 21.0001 19.3278 20.9179C19.9833 20.8297 20.6117 20.631 21.1213 20.1213C21.631 19.6117 21.8297 18.9833 21.9179 18.3278C22.0001 17.7161 22.0001 16.9523 22 16.0658L22 16V8L22 7.9342C22.0001 7.0477 22.0001 6.28388 21.9179 5.67221C21.8297 5.0167 21.631 4.38835 21.1213 3.87868C20.6117 3.36902 19.9833 3.17028 19.3278 3.08215C18.7161 2.99991 17.9523 2.99995 17.0658 3L17 3H7ZM4.2929 5.2929C4.36902 5.21677 4.50497 5.12263 4.93871 5.06431C5.40122 5.00213 6.02893 5 7 5H17C17.9711 5 18.5988 5.00213 19.0613 5.06431C19.495 5.12263 19.631 5.21677 19.7071 5.2929C19.7832 5.36902 19.8774 5.50497 19.9357 5.93871C19.9979 6.40122 20 7.02893 20 8V16C20 16.9711 19.9979 17.5988 19.9357 18.0613C19.8774 18.495 19.7832 18.631 19.7071 18.7071C19.631 18.7832 19.495 18.8774 19.0613 18.9357C18.5988 18.9979 17.9711 19 17 19H7C6.02893 19 5.40121 18.9979 4.93871 18.9357C4.50497 18.8774 4.36902 18.7832 4.2929 18.7071C4.21677 18.631 4.12263 18.495 4.06431 18.0613C4.00213 17.5988 4 16.9711 4 16V8C4 7.02893 4.00213 6.40122 4.06431 5.93871C4.12263 5.50497 4.21677 5.36902 4.2929 5.2929ZM16 7C16.5523 7 17 7.44772 17 8V16C17 16.5523 16.5523 17 16 17C15.4477 17 15 16.5523 15 16V8C15 7.44772 15.4477 7 16 7ZM9 10C9 9.44772 8.55229 9 8 9C7.44772 9 7 9.44772 7 10L7.00001 16C7.00001 16.5523 7.44772 17 8.00001 17C8.55229 17 9.00001 16.5523 9.00001 16L9 10ZM13 12C13 11.4477 12.5523 11 12 11C11.4477 11 11 11.4477 11 12V16C11 16.5523 11.4477 17 12 17C12.5523 17 13 16.5523 13 16V12Z" fill="white"/>
</svg>
