<svg width="24" height="24" viewBox="0 0 24 24" fill="none" xmlns="http://www.w3.org/2000/svg">
<path fill-rule="evenodd" clip-rule="evenodd" d="M5.27446 9.12617C5 9.72291 5 10.4018 5 11.7595V15.9999C5 17.8856 5 18.8284 5.58579 19.4142C6.11733 19.9457 6.94285 19.9949 8.5 19.9995V15C8.5 13.8954 9.39543 13 10.5 13H13.5C14.6046 13 15.5 13.8954 15.5 15V19.9995C17.0572 19.9949 17.8827 19.9457 18.4142 19.4142C19 18.8284 19 17.8856 19 15.9999V11.7595C19 10.4018 19 9.72291 18.7255 9.12617C18.4511 8.52943 17.9356 8.08763 16.9047 7.20401L15.9047 6.34687C14.0414 4.74974 13.1098 3.95117 12 3.95117C10.8902 3.95117 9.95857 4.74974 8.09525 6.34687L7.09525 7.20401C6.06437 8.08763 5.54892 8.52943 5.27446 9.12617ZM13.5 19.9999V15H10.5V19.9999H13.5Z" fill="white"/>
</svg>
