<svg width="24" height="24" viewBox="0 0 24 24" fill="none" xmlns="http://www.w3.org/2000/svg">
<path fill-rule="evenodd" clip-rule="evenodd" d="M2.40192 4.61111C2 5.30727 2 6.24188 2 8.11111V8.94445C2 9.40469 2.3731 9.77778 2.83333 9.77778H3.11111C4.33841 9.77778 5.33333 10.7727 5.33333 12C5.33333 13.2273 4.33841 14.2222 3.11111 14.2222H2.83333C2.3731 14.2222 2 14.5953 2 15.0556V15.8889C2 17.7581 2 18.6927 2.40192 19.3889C2.66523 19.845 3.04394 20.2237 3.5 20.487C4.19615 20.8889 5.13077 20.8889 7 20.8889H17C18.8692 20.8889 19.8038 20.8889 20.5 20.487C20.9561 20.2237 21.3348 19.845 21.5981 19.3889C22 18.6927 22 17.7581 22 15.8889V15.0556C22 14.5953 21.6269 14.2222 21.1667 14.2222H20.8889C19.6616 14.2222 18.6667 13.2273 18.6667 12C18.6667 10.7727 19.6616 9.77778 20.8889 9.77778H21.1667C21.6269 9.77778 22 9.40469 22 8.94445V8.11112C22 6.24188 22 5.30727 21.5981 4.61111C21.3348 4.15506 20.9561 3.77634 20.5 3.51304C19.8038 3.11111 18.8692 3.11111 17 3.11111H7C5.13077 3.11111 4.19615 3.11111 3.5 3.51304C3.04394 3.77634 2.66523 4.15506 2.40192 4.61111ZM12.4036 9.55204C12.2039 9.27886 11.7961 9.27886 11.5964 9.55204L11.0016 10.3655C10.9399 10.4499 10.8533 10.5128 10.754 10.5454L9.79655 10.8597C9.47501 10.9652 9.34901 11.353 9.5471 11.6274L10.1369 12.4444C10.1981 12.5292 10.2312 12.631 10.2315 12.7356L10.2346 13.7433C10.2356 14.0817 10.5655 14.3213 10.8876 14.2177L11.8469 13.9093C11.9465 13.8772 12.0535 13.8772 12.1531 13.9093L13.1124 14.2177C13.4345 14.3213 13.7644 14.0817 13.7654 13.7433L13.7685 12.7356C13.7688 12.631 13.8019 12.5292 13.8631 12.4444L14.4529 11.6274C14.651 11.353 14.525 10.9652 14.2035 10.8597L13.246 10.5454C13.1467 10.5128 13.0601 10.4499 12.9984 10.3655L12.4036 9.55204Z" fill="white"/>
</svg>
