<svg width="24" height="24" viewBox="0 0 24 24" fill="none" xmlns="http://www.w3.org/2000/svg">
<path fill-rule="evenodd" clip-rule="evenodd" d="M21 5C21 4.44772 20.5523 4 20 4C19.4477 4 19 4.44772 19 5V15C19 15.5523 19.4477 16 20 16C20.5523 16 21 15.5523 21 15V5ZM12 8C12.5523 8 13 8.44772 13 9V12C13 12.5523 12.5523 13 12 13C11.4477 13 11 12.5523 11 12V9C11 8.44772 11.4477 8 12 8ZM5 14C5 13.4477 4.55228 13 4 13C3.44772 13 3 13.4477 3 14V16C3 16.5523 3.44772 17 4 17C4.55228 17 5 16.5523 5 16V14ZM3 20C2.44772 20 2 20.4477 2 21C2 21.5523 2.44772 22 3 22H21C21.5523 22 22 21.5523 22 21C22 20.4477 21.5523 20 21 20H3ZM9 10C9 9.44772 8.55228 9 8 9C7.44772 9 7 9.44772 7 10V16C7 16.5523 7.44772 17 8 17C8.55228 17 9 16.5523 9 16V10ZM16 10C16.5523 10 17 10.4477 17 11V13C17 13.5523 16.5523 14 16 14C15.4477 14 15 13.5523 15 13V11C15 10.4477 15.4477 10 16 10Z" fill="white"/>
</svg>
