<?xml version="1.0" encoding="utf-8"?>
<!-- Generator: Adobe Illustrator 25.0.1, SVG Export Plug-In . SVG Version: 6.00 Build 0)  -->
<svg version="1.1" id="Logo1" xmlns="http://www.w3.org/2000/svg" xmlns:xlink="http://www.w3.org/1999/xlink" x="0px" y="0px"
	 viewBox="0 0 64 64" style="enable-background:new 0 0 64 64;" xml:space="preserve">
<style type="text/css">
	.st0{fill:#FFD52A;}
</style>
<path class="st0" d="M58,16.1H6c-3.3,0-6,2.7-6,6v33c0,3.3,2.7,6,6,6h52c3.3,0,6-2.7,6-6v-33C64,18.8,61.3,16.1,58,16.1z M11,40.1
	c0,1.6-1.3,3-3,3c-1.7,0-3-1.4-3-3v-16c0-1.7,1.3-3,3-3c0.8,0,1.6,0.3,2.1,0.9c0.5,0.5,0.9,1.3,0.9,2.1V40.1z M23,33.1
	c0,1.6-1.3,3-3,3c-1.7,0-3-1.4-3-3v-9c0-1.7,1.3-3,3-3c0.8,0,1.6,0.3,2.1,0.9c0.5,0.5,0.9,1.3,0.9,2.1V33.1z M35,52.1
	c0,1.6-1.3,3-3,3c-1.7,0-3-1.4-3-3v-28c0-1.7,1.3-3,3-3c0.8,0,1.6,0.3,2.1,0.9c0.5,0.5,0.9,1.3,0.9,2.1V52.1z M47,39.1
	c0,1.6-1.3,3-3,3c-1.7,0-3-1.4-3-3v-15c0-1.7,1.3-3,3-3c0.8,0,1.6,0.3,2.1,0.9c0.5,0.5,0.9,1.3,0.9,2.1V39.1z M58.1,26.2
	c-0.5,0.5-1.3,0.9-2.1,0.9c-1.7,0-3-1.4-3-3c0-0.8,0.3-1.6,0.9-2.1c0.5-0.6,1.3-0.9,2.1-0.9c0.8,0,1.6,0.3,2.1,0.9
	c0.5,0.5,0.9,1.3,0.9,2.1C59,24.9,58.6,25.6,58.1,26.2z"/>
<path class="st0" d="M4,11H3.5C1.5,11,0,9.4,0,7.5v0C0,5.6,1.5,4,3.5,4H12L4,11z"/>
<polygon class="st0" points="23,11 13,11 21,4 31,4 "/>
<path class="st0" d="M60.1,4h0.5c1.9,0,3.5,1.6,3.5,3.5v0c0,1.9-1.6,3.5-3.5,3.5h-8.5L60.1,4z"/>
<polygon class="st0" points="42,11 32.2,11 40.2,4 50,4 "/>
</svg>
