<?xml version="1.0" encoding="utf-8"?>
<!-- Generator: Adobe Illustrator 25.0.1, SVG Export Plug-In . SVG Version: 6.00 Build 0)  -->
<svg version="1.1" id="Logo1" xmlns="http://www.w3.org/2000/svg" xmlns:xlink="http://www.w3.org/1999/xlink" x="0px" y="0px"
	 viewBox="0 0 110 110" style="enable-background:new 0 0 110 110;" xml:space="preserve">
<style type="text/css">
	.st0{fill:#FFD52A;}
</style>
<path class="st0" d="M67,38.1H15c-3.3,0-6,2.7-6,6v33c0,3.3,2.7,6,6,6h52c3.3,0,6-2.7,6-6v-33C73,40.8,70.3,38.1,67,38.1z M20,62.1
	c0,1.6-1.3,3-3,3c-1.7,0-3-1.4-3-3v-16c0-1.7,1.3-3,3-3c0.8,0,1.6,0.3,2.1,0.9c0.5,0.5,0.9,1.3,0.9,2.1V62.1z M32,55.1
	c0,1.6-1.3,3-3,3c-1.7,0-3-1.4-3-3v-9c0-1.7,1.3-3,3-3c0.8,0,1.6,0.3,2.1,0.9c0.5,0.5,0.9,1.3,0.9,2.1V55.1z M44,74.1
	c0,1.6-1.3,3-3,3c-1.7,0-3-1.4-3-3v-28c0-1.7,1.3-3,3-3c0.8,0,1.6,0.3,2.1,0.9c0.5,0.5,0.9,1.3,0.9,2.1V74.1z M56,61.1
	c0,1.6-1.3,3-3,3c-1.7,0-3-1.4-3-3v-15c0-1.7,1.3-3,3-3c0.8,0,1.6,0.3,2.1,0.9c0.5,0.5,0.9,1.3,0.9,2.1V61.1z M67.1,48.2
	c-0.5,0.5-1.3,0.9-2.1,0.9c-1.7,0-3-1.4-3-3c0-0.8,0.3-1.6,0.9-2.1c0.5-0.6,1.3-0.9,2.1-0.9c0.8,0,1.6,0.3,2.1,0.9
	c0.5,0.5,0.9,1.3,0.9,2.1C68,46.9,67.6,47.6,67.1,48.2z"/>
<path class="st0" d="M13,33h-0.5C10.5,33,9,31.4,9,29.5v0c0-1.9,1.6-3.5,3.5-3.5H21L13,33z"/>
<polygon class="st0" points="32,33 22,33 30,26 40,26 "/>
<path class="st0" d="M80.5,63.5l16,9.2c2,1.2,4.5-0.3,4.5-2.6V51.7c0-2.3-2.5-3.8-4.5-2.6l-16,9.2C78.5,59.5,78.5,62.4,80.5,63.5z"
	/>
<path class="st0" d="M69.1,26h0.5c1.9,0,3.5,1.6,3.5,3.5v0c0,1.9-1.6,3.5-3.5,3.5h-8.5L69.1,26z"/>
<polygon class="st0" points="51,33 41.2,33 49.2,26 59,26 "/>
</svg>
